# xmcd
#
# Track frame offsets:
#	150
#	20250
#	37539
#	49369
#	61212
#	73176
#	85944
#	95758
#	107524
#	122597
#	134230
#	147552
#	162480
#	171770
#	181608
#	194036
#	204021
#	221601
#
# Disc length: 3106
#
# Revision: 2
# Processed by: cddbd v1.5.1PL0 Copyright (c) Steve Scherf et al.
# Submitted via: audiograbber 1.81.03
# Normalized: r1:TDELIM( - )
#
DISCID=060c2012
DTITLE=Various Artist - Cowboys and Cowgirls [CD 4)
DYEAR=2001
DGENRE=Country
TTITLE0=Gram Parsons and Emmylou Harris - Love Hurts
TTITLE1=Lynn Andreson - Close To You
TTITLE2=Roy Drusky - Take These Chains From My Heart
TTITLE3=Tammy Wynette - Stand By Your Man
TTITLE4=Telly Savalas - Some Broken Hearts Never Mend
TTITLE5=Billiie Joe Spears - Sunshine
TTITLE6=Billy Swan - I Can Help
TTITLE7=Donna Fargo - Funny Face
TTITLE8=Kenny Rogers - Crazy
TTITLE9=Lynn Anderson - You're My Man
TTITLE10=Jimmy Dean - Big Bad John
TTITLE11=Lee Greenwood and LyToya Jackson - What You Don't Say
TTITLE12=Roger Miller - Chug-A-Lug
TTITLE13=Lynn Anderson - What A Man My Man Is
TTITLE14=Johnny Cash - Folsom Prison Blues
TTITLE15=Brenda Lee - I'm Sorry
TTITLE16=Johnny Lee - Looking For Love
TTITLE17=Wanda Jackson - In The Middl Of A Heartache
EXTD=
EXTT0=
EXTT1=
EXTT2=
EXTT3=
EXTT4=
EXTT5=
EXTT6=
EXTT7=
EXTT8=
EXTT9=
EXTT10=
EXTT11=
EXTT12=
EXTT13=
EXTT14=
EXTT15=
EXTT16=
EXTT17=
PLAYORDER=
